<svg width="82" height="102" viewBox="0 0 82 102" fill="none" xmlns="http://www.w3.org/2000/svg">
<path d="M29.9098 94.2249H52.0902L50.5216 101H31.4784L29.9098 94.2249Z" fill="black"/>
<path d="M63.7451 79.922L46.4902 91.2138L62.9608 68.9382L81 44.5411L72.3726 68.6302L63.7451 79.922Z" fill="black"/>
<path d="M35.5098 91.2138L18.2549 79.922L8.84314 68.6302L1 44.5411L18.2549 67.8774L35.5098 91.2138Z" fill="black"/>
<path d="M10.4118 22.7103L15.1176 41.53L39.4314 91.2138H40.2157L33.6759 43.7883L32.2 31.7437L30.8039 14.4297L35.5098 1L20.6078 6.14905L10.4118 22.7103Z" fill="black"/>
<path d="M44.9216 1L49.6275 14.4297L48.6 31.7437L47.6551 43.7883L42.5686 91.2138H43.3529L66.8824 41.53L70.8039 22.7103L60.6078 6.14905L44.9216 1Z" fill="black"/>
<path d="M1 26.4743L8.84314 10.6658L14.7255 8.40741L4.13725 26.4743L7.13725 42.2716L10.7059 51.2939L1 39.2716V26.4743Z" fill="black"/>
<path d="M72.3726 10.6658L81 26.4743V39.7766L72.3726 51.2939L74.5 42.2716L77.8627 26.4743L66.4902 8.40741L72.3726 10.6658Z" fill="black"/>
<path d="M35.5098 91.2138L1 44.5411M35.5098 91.2138L18.2549 79.922L8.84314 68.6302L1 44.5411M35.5098 91.2138L18.2549 67.8774L1 44.5411M72.3726 10.6658L81 26.4743V39.7766L72.3726 51.2939L74.5 42.2716L77.8627 26.4743L66.4902 8.40741M72.3726 10.6658C72.3726 10.6658 68.7874 9.28935 66.4902 8.40741M72.3726 10.6658L66.4902 8.40741M81 44.5411L72.3726 68.6302L63.7451 79.922L46.4902 91.2138M81 44.5411L62.9608 68.9382L46.4902 91.2138M81 44.5411L63.7451 67.8774L46.4902 91.2138M1 26.4743L8.84314 10.6658L14.7255 8.40741L4.13725 26.4743L7.13725 42.2716L10.7059 51.2939L1 39.2716V26.4743ZM29.9098 94.2249H52.0902L50.5216 101H31.4784L29.9098 94.2249ZM10.4118 22.7103L15.1176 41.53L39.4314 91.2138H40.2157L33.6759 43.7883L32.2 31.7437L30.8039 14.4297L35.5098 1L20.6078 6.14905L10.4118 22.7103ZM44.9216 1L49.6275 14.4297L48.6 31.7437L47.6551 43.7883L42.5686 91.2138H43.3529L66.8824 41.53L70.8039 22.7103L60.6078 6.14905L44.9216 1Z" stroke="black"/>
</svg>
